# xmcd
#
# Track frame offsets:
#	150
#	17565
#	38617
#	57312
#	71350
#	87182
#	106765
#	124067
#	142870
#
# Disc length: 2148 seconds
#
# Revision: 2
# Processed by: cddbd v1.4b41PL3 Copyright (c) Steve Scherf et al.
# Submitted via: EZCDDA 4.3.2
#
DISCID=67086209
DTITLE=Gladys Knight and The Pips - Gladys Knight "Pipe Dreams"
DYEAR=1900
DGENRE=
TTITLE0=So sad the song
TTITLE1=Alaskan pipeline
TTITLE2=Pot of jazz
TTITLE3=I'll miss you
TTITLE4=Nobody but you
TTITLE5=Pipe dreams
TTITLE6=Everybody got to find a way
TTITLE7=I will follow my dream
TTITLE8=So sad the song (instrumental)
EXTD=
EXTT0=
EXTT1=
EXTT2=
EXTT3=
EXTT4=
EXTT5=
EXTT6=
EXTT7=
EXTT8=
PLAYORDER=
